{"title":"Million.Dollar.Baby.2004.1080p.BluRay.x265.10bit-z97","uid":15404881,"size":1288763538,"categoryP":"video","categoryS":"hd___movies","magnet":"?xt=urn:btih:df2de98b98a1c354034c25801f04928bd293cc4b&amp;dn=Million.Dollar.Baby.2004.1080p.BluRay.x265.10bit-z97&amp;tr=udp%3A%2F%2Ftracker.leechers-paradise.org%3A6969&amp;tr=udp%3A%2F%2Fzer0day.ch%3A1337&amp;tr=udp%3A%2F%2Fopen.demonii.com%3A1337&amp;tr=udp%3A%2F%2Ftracker.coppersurfer.tk%3A6969&amp;tr=udp%3A%2F%2Fexodus.desync.com%3A6969","seeders":1,"leechers":0,"uploader":"48848448","files":2,"time":1469492462,"description":"______ _____  ______\r\n                       |___  /|  _  ||___  /\r\n                          / / | |_| |   / / \r\n                         / /  ____ |  / /  \r\n                       ./ /___.___/ /./ /   \r\n                       _____/____/ _/   \r\n\r\n\r\n                         RELEASE NOTES                         \r\n▄▄▄▄▄▄▄▄▄▄▄▄▄▄▄▄▄▄▄▄▄▄▄▄▄▄▄▄▄▄▄▄▄▄▄▄▄▄▄▄▄▄▄▄▄▄▄▄▄▄▄▄▄▄▄▄▄▄▄▄▄▄▄▄▄\r\n\r\n                    Million Dolar Baby 2004\r\n               \r\niMDB url                       : www.imdb.com/title/tt0405159/\r\niMDB Rating                    : 8.1/10 from 480,026 votes\r\nRelease                        : 2005 - January 28th\r\nGenre                          : Drama, Sport\r\nSource                         : BluRay\r\nSubs                           : ENG/FRA/SPA/GER/NL\r\n\r\n                         PLOT SUMMARY                     \r\n▄▄▄▄▄▄▄▄▄▄▄▄▄▄▄▄▄▄▄▄▄▄▄▄▄▄▄▄▄▄▄▄▄▄▄▄▄▄▄▄▄▄▄▄▄▄▄▄▄▄▄▄▄▄▄▄▄▄▄▄▄▄▄▄▄▄\r\n\r\nA determined woman works with a hardened boxing trainer to become\r\na professional.\r\n\r\nDirector : Clint Eastwood\r\nStars    : Hilary Swank, Clint Eastwood, Morgan Freeman\r\n\r\n                      RELEASE INFORMATION                 \r\n▄▄▄▄▄▄▄▄▄▄▄▄▄▄▄▄▄▄▄▄▄▄▄▄▄▄▄▄▄▄▄▄▄▄▄▄▄▄▄▄▄▄▄▄▄▄▄▄▄▄▄▄▄▄▄▄▄▄▄▄▄▄▄▄▄▄\r\n\r\nVideo\r\nID                             : 1\r\nFormat                         : HEVC\r\nFormat/Info                    : High Efficiency Video Coding\r\nFormat profile                 : Main   @High\r\nCodec ID                       : V_MPEGH/ISO/HEVC\r\nDuration                       : 2h 12mn\r\nBit rate                       : 887 Kbps\r\nWidth                          : 1 920 pixels\r\nHeight                         : 800 pixels\r\nDisplay aspect ratio           : 2.40:1\r\nFrame rate mode                : Constant\r\nFrame rate                     : 23.976 fps\r\nColor space                    : YUV\r\nChroma subsampling             : 4:2:0\r\nBit depth                      : 10 bits\r\nBits/(Pixel*Frame)             : 0.024\r\nStream size                    : 841 MiB (68%)\r\nWriting library                : x265 2.0+9[64 bit] 10bit\r\nLanguage                       : English\r\nDefault                        : Yes\r\nForced                         : No\r\n\r\nAudio\r\nID                             : 2\r\nFormat                         : AC-3\r\nFormat/Info                    : Audio Coding 3\r\nMode extension                 : CM (complete main)\r\nFormat settings, Endianness    : Big\r\nCodec ID                       : A_AC3\r\nDuration                       : 2h 12mn\r\nBit rate mode                  : Constant\r\nBit rate                       : 384 Kbps\r\nChannel(s)                     : 6 channels\r\nChannel positions              : Front: L C R, Side: L R, LFE\r\nSampling rate                  : 48.0 KHz\r\nCompression mode               : Lossy\r\nStream size                    : 364 MiB (30%)\r\nLanguage                       : English\r\nDefault                        : Yes\r\nForced                         : No","torrent":{"xt":"urn:btih:df2de98b98a1c354034c25801f04928bd293cc4b","amp;dn":"Million.Dollar.Baby.2004.1080p.BluRay.x265.10bit-z97","amp;tr":["udp%3A%2F%2Ftracker.leechers-paradise.org%3A6969","udp%3A%2F%2Fzer0day.ch%3A1337","udp%3A%2F%2Fopen.demonii.com%3A1337","udp%3A%2F%2Ftracker.coppersurfer.tk%3A6969","udp%3A%2F%2Fexodus.desync.com%3A6969"],"infoHash":"df2de98b98a1c354034c25801f04928bd293cc4b","infoHashBuffer":{"type":"Buffer","data":[223,45,233,139,152,161,195,84,3,76,37,128,31,4,146,139,210,147,204,75]},"announce":[],"urlList":[]}}